# xmcd
#
# Track frame offsets:
# 150
# 14525
# 24117
# 37131
# 48404
# 65840
# 81172
#
# Disc length: 1309 seconds
#
# Revision: 0
# Processed by: cddbd v1.5.1PL2 Copyright (c) Steve Scherf et al.
# Submitted via: Audion 3.0.2 (http://www.panic.com/audion/)
#
DISCID=57051b07
DTITLE=Jason and The Scorchers - Fervor
DYEAR=1900
DGENRE=
TTITLE0=Absolutely Sweet Marie
TTITLE1=Help There's a Fire
TTITLE2=Can't Help Myself
TTITLE3=Hot Nights in Georgia
TTITLE4=Pray For Me Mama (I'm a Gypsy Now)
TTITLE5=Harvest Moon
TTITLE6=Both Sides of the Line
EXTD=
EXTT0=
EXTT1=
EXTT2=
EXTT3=
EXTT4=
EXTT5=
EXTT6=
PLAYORDER=
